<svg width="155" height="60" viewBox="0 0 155 60" fill="none" xmlns="http://www.w3.org/2000/svg">
<path d="M30.8196 18.2142C33.6826 18.2142 36.2253 18.8755 38.4479 20.1979C40.6705 21.5204 42.4034 23.2836 43.6465 25.4877C44.9273 27.6918 45.5677 30.0979 45.5677 32.7061C45.5677 35.3142 44.9273 37.7204 43.6465 39.9244C42.4034 42.0918 40.6705 43.8367 38.4479 45.1591C36.2253 46.4816 33.6826 47.1428 30.8196 47.1428C27.9566 47.1428 25.4138 46.4816 23.1912 45.1591C20.9686 43.8367 19.217 42.0918 17.9361 39.9244C16.693 37.7204 16.0714 35.3142 16.0714 32.7061C16.0714 30.0979 16.693 27.6918 17.9361 25.4877C19.217 23.2836 20.9686 21.5204 23.1912 20.1979C25.4138 18.8755 27.9566 18.2142 30.8196 18.2142ZM30.8196 22.6224C28.823 22.6224 27.0713 23.0999 25.5645 24.055C24.0577 24.9734 22.8899 26.204 22.0611 27.7469C21.27 29.253 20.8745 30.9061 20.8745 32.7061C20.8745 34.4693 21.27 36.1224 22.0611 37.6653C22.8899 39.1714 24.0577 40.402 25.5645 41.3571C27.0713 42.2755 28.823 42.7346 30.8196 42.7346C32.8538 42.7346 34.6055 42.2755 36.0747 41.3571C37.5815 40.402 38.7304 39.1714 39.5215 37.6653C40.3503 36.1224 40.7647 34.4693 40.7647 32.7061C40.7647 30.9061 40.3503 29.253 39.5215 27.7469C38.7304 26.204 37.5815 24.9734 36.0747 24.055C34.6055 23.0999 32.8538 22.6224 30.8196 22.6224Z" fill="black"/>
<path d="M65.9665 18.2142C68.0384 18.2142 69.8277 18.5448 71.3346 19.2061C72.8414 19.8306 73.8773 20.3999 74.4424 20.9142V25.4877C73.3876 24.7163 72.1821 24.055 70.826 23.504C69.4698 22.9163 67.85 22.6224 65.9665 22.6224C63.9699 22.6224 62.2182 23.0999 60.7114 24.055C59.2045 24.9734 58.0367 26.204 57.208 27.7469C56.4169 29.253 56.0214 30.9061 56.0214 32.7061C56.0214 34.4693 56.4169 36.1224 57.208 37.6653C58.0367 39.1714 59.2045 40.402 60.7114 41.3571C62.2182 42.2755 63.9699 42.7346 65.9665 42.7346C67.85 42.7346 69.4698 42.4591 70.826 41.9081C72.1821 41.3204 73.3876 40.6408 74.4424 39.8693V44.4428C73.8773 44.9938 72.8414 45.5816 71.3346 46.2061C69.8277 46.8306 68.0384 47.1428 65.9665 47.1428C63.1035 47.1428 60.5607 46.4816 58.3381 45.1591C56.1155 43.8367 54.3638 42.0918 53.083 39.9244C51.8399 37.7204 51.2183 35.3142 51.2183 32.7061C51.2183 30.0979 51.8399 27.6918 53.083 25.4877C54.3638 23.2836 56.1155 21.5204 58.3381 20.1979C60.5607 18.8755 63.1035 18.2142 65.9665 18.2142Z" fill="black"/>
<path d="M93.711 18.2142C95.3309 18.2142 96.9696 18.5999 98.6271 19.3714C100.322 20.1061 101.773 21.1346 102.978 22.4571V18.7653H107.612V46.3163H102.978V41.6326C101.999 43.102 100.661 44.3877 98.9661 45.4897C97.3086 46.5918 95.4062 47.1428 93.259 47.1428C90.848 47.1428 88.6443 46.555 86.6477 45.3795C84.6512 44.1673 83.0502 42.4959 81.8447 40.3653C80.6769 38.2346 80.093 35.7734 80.093 32.9816C80.093 29.9326 80.6769 27.3061 81.8447 25.102C83.0502 22.8979 84.6889 21.2081 86.7608 20.0326C88.8327 18.8204 91.1494 18.2142 93.711 18.2142ZM94.5586 22.6224C92.5244 22.6224 90.7915 23.1183 89.36 24.1102C87.9286 25.102 86.8173 26.3877 86.0262 27.9673C85.2728 29.5102 84.8961 31.1816 84.8961 32.9816C84.8961 34.7448 85.2728 36.3795 86.0262 37.8857C86.7796 39.355 87.8344 40.5306 89.1905 41.4122C90.5843 42.2938 92.1854 42.7346 93.9936 42.7346C95.7264 42.7346 97.2709 42.2938 98.6271 41.4122C99.9832 40.5306 101.057 39.3183 101.848 37.7755C102.639 36.1959 103.016 34.4326 102.978 32.4857L102.922 27.1959C101.754 25.7632 100.492 24.6428 99.1356 23.8346C97.8171 23.0265 96.2915 22.6224 94.5586 22.6224Z" fill="black"/>
<path d="M154.286 18.7653L144.397 46.3163H141.515L133.774 26.8653L126.033 46.3163H123.151L113.262 18.7653H118.8L125.072 38.1061L132.474 18.7653H135.074L142.476 38.1061L148.748 18.7653H154.286Z" fill="black"/>
<path d="M5.69217 0V54.6511H153.214V60H0V0H5.69217Z" fill="black"/>
</svg>
