<svg width="14" height="19" viewBox="0 0 14 19" fill="none" xmlns="http://www.w3.org/2000/svg">
<mask id="path-1-inside-1" fill="white">
<path fill-rule="evenodd" clip-rule="evenodd" d="M7.91391 17.6403C9.81077 15.8613 14 11.4306 14 7C14 3.13401 10.866 0 7 0C3.13401 0 0 3.13401 0 7C0 11.4306 4.18923 15.8613 6.08609 17.6403C6.60682 18.1287 7.39318 18.1287 7.91391 17.6403ZM7 9.86364C8.58154 9.86364 9.86364 8.58154 9.86364 7C9.86364 5.41846 8.58154 4.13636 7 4.13636C5.41846 4.13636 4.13636 5.41846 4.13636 7C4.13636 8.58154 5.41846 9.86364 7 9.86364Z"/>
</mask>
<path d="M7.91391 17.6403L8.94006 18.7344L8.94006 18.7344L7.91391 17.6403ZM6.08609 17.6403L5.05994 18.7344L5.05994 18.7344L6.08609 17.6403ZM12.5 7C12.5 8.77144 11.647 10.683 10.4289 12.4695C9.23007 14.2279 7.79446 15.6959 6.88776 16.5463L8.94006 18.7344C9.93022 17.8057 11.5376 16.1689 12.9076 14.1595C14.2584 12.1783 15.5 9.65919 15.5 7H12.5ZM7 1.5C10.0376 1.5 12.5 3.96243 12.5 7H15.5C15.5 2.30558 11.6944 -1.5 7 -1.5V1.5ZM1.5 7C1.5 3.96243 3.96243 1.5 7 1.5V-1.5C2.30558 -1.5 -1.5 2.30558 -1.5 7H1.5ZM7.11224 16.5463C6.20554 15.6959 4.76993 14.2279 3.57108 12.4695C2.35302 10.683 1.5 8.77144 1.5 7H-1.5C-1.5 9.65919 -0.258406 12.1783 1.09237 14.1595C2.46235 16.1689 4.06978 17.8057 5.05994 18.7344L7.11224 16.5463ZM6.88776 16.5463C6.90804 16.5272 6.94915 16.5066 7 16.5066C7.05085 16.5066 7.09196 16.5272 7.11224 16.5463L5.05994 18.7344C6.15773 19.764 7.84227 19.764 8.94006 18.7344L6.88776 16.5463ZM8.36364 7C8.36364 7.75311 7.75311 8.36364 7 8.36364V11.3636C9.40997 11.3636 11.3636 9.40997 11.3636 7H8.36364ZM7 5.63636C7.75311 5.63636 8.36364 6.24688 8.36364 7H11.3636C11.3636 4.59003 9.40997 2.63636 7 2.63636V5.63636ZM5.63636 7C5.63636 6.24688 6.24688 5.63636 7 5.63636V2.63636C4.59003 2.63636 2.63636 4.59003 2.63636 7H5.63636ZM7 8.36364C6.24688 8.36364 5.63636 7.75311 5.63636 7H2.63636C2.63636 9.40997 4.59003 11.3636 7 11.3636V8.36364Z" fill="#5DDDC6" mask="url(#path-1-inside-1)"/>
</svg>
