<svg width="18" height="18" viewBox="0 0 18 18" fill="none" xmlns="http://www.w3.org/2000/svg">
<path d="M16.5822 5.67466H1.44521M4 17.25H14.0274C15.6843 17.25 17.0274 15.9069 17.0274 14.25V6.00343C17.0274 4.34657 15.6843 3.00343 14.0274 3.00343H4C2.34315 3.00343 1 4.34657 1 6.00342V14.25C1 15.9069 2.34314 17.25 4 17.25Z" stroke="#5DDDC6" stroke-width="1.5" stroke-linecap="round"/>
<path d="M5.00685 3.00342V1" stroke="#5DDDC6" stroke-width="1.5" stroke-linecap="round" stroke-linejoin="round"/>
<path d="M13.0206 3.00342V1" stroke="#5DDDC6" stroke-width="1.5" stroke-linecap="round" stroke-linejoin="round"/>
<path d="M5.67465 14.1336H4.33904M5.67465 11.4623H4.33904M5.67465 8.7911H4.33904M9.6815 14.1336H8.34588M9.6815 11.4623H8.34588M9.6815 8.7911H8.34588M13.6883 14.1336H12.3527M13.6883 11.4623H12.3527M13.6883 8.7911H12.3527" stroke="#5DDDC6" stroke-width="1.5" stroke-linecap="round"/>
</svg>
