<svg width="20" height="16" viewBox="0 0 20 16" fill="none" xmlns="http://www.w3.org/2000/svg">
<path d="M9.32419 10.3211L9.53392 9.44593L9.32419 10.3211C9.76844 10.4276 10.2316 10.4276 10.6758 10.3211C11.1827 10.1997 11.6328 9.89889 12.1678 9.54128C12.2029 9.51782 12.2384 9.4941 12.2743 9.47018L17.8362 5.7622C18.5008 5.31915 18.9 4.57326 18.9 3.77453C18.9 2.45519 17.8305 1.38564 16.5111 1.38564H3.48889C2.16954 1.38564 1.1 2.45519 1.1 3.77453C1.1 4.57326 1.49919 5.31915 2.16377 5.7622L7.72573 9.47018C7.76161 9.4941 7.79709 9.51781 7.8322 9.54128C8.36724 9.89889 8.81725 10.1997 9.32419 10.3211Z" stroke="#5DDDC6" stroke-width="1.8"/>
<path d="M18 5.71423V11.2761C18 12.3962 18 12.9563 17.782 13.3841C17.5903 13.7604 17.2843 14.0664 16.908 14.2582C16.4802 14.4761 15.9201 14.4761 14.8 14.4761H5.2C4.07989 14.4761 3.51984 14.4761 3.09202 14.2582C2.71569 14.0664 2.40973 13.7604 2.21799 13.3841C2 12.9563 2 12.3962 2 11.2761V5.71423" stroke="#5DDDC6" stroke-width="1.8"/>
</svg>
