<svg width="18" height="18" viewBox="0 0 18 18" fill="none" xmlns="http://www.w3.org/2000/svg">
<path d="M13.75 4.825V3C13.75 1.89543 12.8546 1 11.75 1H3C1.89543 1 1 1.89543 1 3V13.45C1 14.5546 1.89543 15.45 3 15.45H8.65" stroke="#5DDDC6" stroke-width="1.5" stroke-linecap="round" stroke-linejoin="round"/>
<circle cx="13.75" cy="9.925" r="2.975" fill="#5DDDC6"/>
<path d="M13.75 14.175C11.537 14.175 10.6043 15.4554 10.2113 16.5346C9.9278 17.313 10.5966 18 11.425 18H16.075C16.9034 18 17.5722 17.313 17.2887 16.5346C16.8957 15.4554 15.963 14.175 13.75 14.175Z" fill="#5DDDC6"/>
<path d="M4.39999 4.4H10.35" stroke="#5DDDC6" stroke-width="1.5" stroke-linecap="round" stroke-linejoin="round"/>
<path d="M4.39999 7.375L7.79999 7.375" stroke="#5DDDC6" stroke-width="1.5" stroke-linecap="round" stroke-linejoin="round"/>
</svg>
