<svg width="18" height="18" viewBox="0 0 18 18" fill="none" xmlns="http://www.w3.org/2000/svg">
<g opacity="0.7">
<rect x="1" y="7.25" width="15.7742" height="10" rx="3" stroke="#18CFAE" stroke-width="1.5"/>
<path d="M12.8306 6.83333V4.94355C12.8306 2.76559 11.0651 1 8.88709 1V1C6.70913 1 4.94354 2.76559 4.94354 4.94355V6.83333" stroke="#18CFAE" stroke-width="1.5"/>
<path d="M10.6398 11.4167C10.6398 12.3371 9.85507 13.0833 8.88709 13.0833C7.9191 13.0833 7.1344 12.3371 7.1344 11.4167C7.1344 10.4962 7.9191 9.75 8.88709 9.75C9.85507 9.75 10.6398 10.4962 10.6398 11.4167Z" fill="#18CFAE"/>
<path d="M8.01074 12.25C8.01074 11.7898 8.4031 11.4167 8.88709 11.4167C9.37108 11.4167 9.76343 11.7898 9.76343 12.25V14.3333C9.76343 14.7936 9.37108 15.1667 8.88709 15.1667C8.4031 15.1667 8.01074 14.7936 8.01074 14.3333V12.25Z" fill="#18CFAE"/>
</g>
</svg>
